<svg width="24" height="24" viewBox="0 0 24 24" fill="none" xmlns="http://www.w3.org/2000/svg">
<path fill-rule="evenodd" clip-rule="evenodd" d="M2.49976 1C1.94747 1 1.49976 1.44772 1.49976 2C1.49976 2.55228 1.94747 3 2.49976 3C3.22818 3 3.86455 3.52928 3.99557 4.274L4.68145 8.17269L4.68206 8.17614L5.12151 10.6321C5.39635 12.1681 5.61583 13.3948 5.89332 14.3692C6.17948 15.3741 6.55036 16.2009 7.18027 16.8996C7.61292 17.3796 8.11912 17.7904 8.68013 18.1183C9.49282 18.5932 10.3887 18.8024 11.4539 18.9025C12.4916 19 13.7778 19 15.3981 19H15.8906C16.6112 19 17.2054 19 17.6948 18.9644C18.2047 18.9273 18.6687 18.8482 19.119 18.6563C19.7756 18.3764 20.3507 17.9363 20.7862 17.3748C21.087 16.9871 21.2747 16.5597 21.4287 16.0822C21.5755 15.6266 21.7095 15.065 21.8705 14.3902L21.8908 14.3051C22.1355 13.2795 22.3354 12.4415 22.4322 11.7573C22.5319 11.0532 22.5428 10.391 22.3161 9.75271C21.9973 8.85541 21.3701 8.09999 20.5493 7.60785C19.9711 7.26118 19.3173 7.12553 18.5919 7.062C17.8837 6.99998 16.9963 6.99999 15.9012 7H6.50585L5.96532 3.92747C5.6687 2.24144 4.21409 1 2.49976 1ZM15.8545 9C17.0074 9 17.8069 9.0009 18.4175 9.05437C19.0209 9.10723 19.3227 9.20432 19.5208 9.32315C19.9534 9.58247 20.2719 9.97292 20.4314 10.4221C20.501 10.6179 20.5328 10.9061 20.452 11.4771C20.3699 12.0572 20.1929 12.8036 19.9339 13.8892C19.7619 14.6103 19.6453 15.0958 19.5251 15.4686C19.4093 15.8278 19.3103 16.0145 19.206 16.1489C18.9829 16.4365 18.6837 16.6677 18.3347 16.8165C18.1666 16.8881 17.9457 16.9409 17.5497 16.9697C17.1414 16.9994 16.6202 17 15.8545 17H15.4485C13.7666 17 12.5743 16.999 11.6411 16.9113C10.7245 16.8251 10.1515 16.6617 9.68927 16.3915C9.3041 16.1664 8.95902 15.8858 8.66577 15.5605C8.31759 15.1743 8.05802 14.6683 7.81684 13.8214C7.57015 12.9551 7.36723 11.8278 7.08086 10.2274L6.86124 9H15.8545Z" fill="#002147"/>
<path d="M10.4998 20.75C10.4998 21.4404 9.94011 22 9.24976 22C8.5594 22 7.99976 21.4404 7.99976 20.75C7.99976 20.0596 8.5594 19.5 9.24976 19.5C9.94011 19.5 10.4998 20.0596 10.4998 20.75Z" fill="#002147"/>
<path d="M18.2498 22C18.9401 22 19.4998 21.4404 19.4998 20.75C19.4998 20.0596 18.9401 19.5 18.2498 19.5C17.5594 19.5 16.9998 20.0596 16.9998 20.75C16.9998 21.4404 17.5594 22 18.2498 22Z" fill="#002147"/>
</svg>
